# xmcd
# 
# Track frame offsets:
#     150
#     14169
#     36264
#     50731
#     64656
#     83117
#     98863
#     116295
#     127326
#     145033
# 
# Disc length: 2174
# 
# Revision: 1
# Processed by: cddbd v1.5.2PL0 Copyright (c) Steve Scherf et al.
# Submitted via: fre:ac v1.0.27
# 
DISCID=8e087c0a
DTITLE=Somebody's Darling - Adult Roommates
DYEAR=2014
DGENRE=Rock
TTITLE0=01. Bad Bad
TTITLE1=02. Generator
TTITLE2=03. Come To Realize
TTITLE3=04. Set It Up
TTITLE4=05. End of the Line
TTITLE5=06. Vowels Flow
TTITLE6=07. Same Record
TTITLE7=08. Two Lords
TTITLE8=09. Smoke Blows
TTITLE9=10. Keep This Up
EXTD=
EXTT0=
EXTT1=
EXTT2=
EXTT3=
EXTT4=
EXTT5=
EXTT6=
EXTT7=
EXTT8=
EXTT9=
PLAYORDER=
